<?xml version="1.0" encoding="iso-8859-1"?>
<!-- Generator: Adobe Illustrator 19.0.0, SVG Export Plug-In . SVG Version: 6.00 Build 0)  -->
<svg version="1.1" id="Capa_1" xmlns="http://www.w3.org/2000/svg" xmlns:xlink="http://www.w3.org/1999/xlink" x="0px" y="0px"
	 viewBox="0 0 512 512" style="enable-background:new 0 0 512 512;" xml:space="preserve">
<g>
	<g>
		<path d="M480,202.667h-10.667V192c0-29.397-23.915-53.333-53.333-53.333H53.333C23.936,138.667,0,162.603,0,192v128
			c0,29.419,23.936,53.333,53.333,53.333H416c29.419,0,53.333-23.915,53.333-53.333v-10.667H480c17.643,0,32-14.357,32-32v-42.667
			C512,217.024,497.643,202.667,480,202.667z M211.733,325.611c-1.941,3.136-5.376,5.056-9.067,5.056H53.333
			c-5.888,0-10.667-4.779-10.667-10.667V192c0-5.888,4.779-10.667,10.667-10.667h85.333c4.032,0,7.723,2.283,9.536,5.888l64,128
			C213.867,318.549,213.696,322.453,211.733,325.611z" fill="#fff" />
	</g>
</g>
<g>
</g>
<g>
</g>
<g>
</g>
<g>
</g>
<g>
</g>
<g>
</g>
<g>
</g>
<g>
</g>
<g>
</g>
<g>
</g>
<g>
</g>
<g>
</g>
<g>
</g>
<g>
</g>
<g>
</g>
</svg>
