<svg xmlns="http://www.w3.org/2000/svg" viewBox="0 0 100 100" width="200px" height="200px"><path fill="#f15b6c" d="M80.01,34H50v16l-13.67,8.32L36.14,58l-15-25.98C27.14,22.4,37.82,16,50,16	C63,16,74.29,23.29,80.01,34z"/><path fill="#60be92" d="M64.04,57.68L63.86,58l-15,25.98C30.61,83.38,16,68.4,16,50c0-6.6,1.88-12.76,5.14-17.98l15,25.98	L50,50L64.04,57.68z"/><path fill="#f9e65c" d="M84,50c0,18.78-15.22,34-34,34c-0.38,0-0.76-0.01-1.14-0.02l15-25.98L50,50l-0.38-16h30.39	C82.56,38.77,84,44.22,84,50z"/><circle cx="50" cy="50" r="15.5" fill="#fff"/><circle cx="50" cy="50" r="11.5" fill="#39c2d8"/><path fill="#1f212b" d="M80.5,35h-31c-0.276,0-0.5-0.224-0.5-0.5s0.224-0.5,0.5-0.5h31c0.276,0,0.5,0.224,0.5,0.5	S80.776,35,80.5,35z"/><path fill="#1f212b" d="M36.827,58.683c-0.173,0-0.341-0.09-0.434-0.25l-15.5-26.847c-0.138-0.239-0.056-0.545,0.183-0.683	c0.238-0.141,0.544-0.057,0.683,0.183l15.5,26.847c0.138,0.239,0.056,0.545-0.183,0.683C36.998,58.661,36.912,58.683,36.827,58.683z"/><path fill="#1f212b" d="M48.173,84.664c-0.085,0-0.171-0.021-0.25-0.067c-0.239-0.138-0.321-0.443-0.183-0.683l15.5-26.847	c0.138-0.239,0.444-0.323,0.683-0.183c0.239,0.138,0.321,0.443,0.183,0.683l-15.5,26.847C48.514,84.574,48.346,84.664,48.173,84.664	z"/><path fill="#1f212b" d="M50,85c-19.299,0-35-15.701-35-35s15.701-35,35-35s35,15.701,35,35S69.299,85,50,85z M50,17	c-18.196,0-33,14.804-33,33s14.804,33,33,33s33-14.804,33-33S68.196,17,50,17z"/><path fill="#1f212b" d="M50,66c-8.822,0-16-7.178-16-16s7.178-16,16-16s16,7.178,16,16S58.822,66,50,66z M50,35	c-8.271,0-15,6.729-15,15s6.729,15,15,15s15-6.729,15-15S58.271,35,50,35z"/><path fill="#1f212b" d="M50,62c-6.617,0-12-5.383-12-12s5.383-12,12-12s12,5.383,12,12S56.617,62,50,62z M50,39	c-6.065,0-11,4.935-11,11s4.935,11,11,11s11-4.935,11-11S56.065,39,50,39z"/><path d="M47.469,79.885c-0.014,0-0.028-0.001-0.043-0.002C32.047,78.574,20,65.448,20,50c0-3.721,0.681-7.364,2.023-10.83	c0.1-0.258,0.388-0.387,0.647-0.285c0.257,0.1,0.385,0.389,0.286,0.646C21.658,42.882,21,46.403,21,50	c0,14.934,11.645,27.622,26.511,28.887c0.275,0.023,0.479,0.266,0.456,0.54C47.945,79.688,47.726,79.885,47.469,79.885z"/><path d="M25.817,33.613c-0.099,0-0.199-0.029-0.286-0.09c-0.226-0.159-0.281-0.471-0.123-0.696C31.026,24.795,40.22,20,50,20	c3.29,0,6.54,0.538,9.661,1.599c0.261,0.089,0.401,0.373,0.313,0.635c-0.089,0.261-0.37,0.399-0.635,0.313	C56.322,21.521,53.18,21,50,21c-9.454,0-18.341,4.636-23.773,12.399C26.13,33.539,25.975,33.613,25.817,33.613z"/><path d="M64.5,24.813c-0.083,0-0.168-0.021-0.246-0.064c-0.651-0.369-1.313-0.711-1.966-1.017c-0.25-0.117-0.358-0.415-0.241-0.665	c0.117-0.25,0.414-0.358,0.665-0.241c0.676,0.317,1.361,0.671,2.034,1.052c0.241,0.137,0.325,0.441,0.189,0.682	C64.843,24.722,64.674,24.813,64.5,24.813z"/><path d="M67.5,26.754c-0.103,0-0.207-0.032-0.297-0.098c-0.323-0.239-0.648-0.474-0.982-0.698c-0.229-0.154-0.29-0.465-0.135-0.694	c0.154-0.229,0.465-0.29,0.694-0.136c0.345,0.232,0.683,0.477,1.018,0.724c0.222,0.164,0.269,0.478,0.105,0.699	C67.804,26.684,67.653,26.754,67.5,26.754z"/><path d="M72.961,32c-0.146,0-0.291-0.063-0.39-0.186c-1.049-1.3-2.194-2.5-3.403-3.566c-0.207-0.183-0.227-0.499-0.044-0.706	c0.183-0.206,0.5-0.226,0.706-0.044c1.25,1.104,2.434,2.345,3.519,3.688c0.173,0.215,0.14,0.53-0.075,0.703	C73.183,31.964,73.071,32,72.961,32z"/><path d="M54.53,79.653c-0.243,0-0.456-0.177-0.494-0.424c-0.042-0.272,0.145-0.528,0.418-0.57C68.448,76.502,79,64.182,79,50	c0-4.29-0.919-8.424-2.732-12.288c-0.117-0.249-0.01-0.547,0.24-0.665c0.251-0.114,0.548-0.01,0.665,0.241	C79.049,41.285,80,45.563,80,50c0,14.671-10.917,27.416-25.394,29.647C54.581,79.651,54.555,79.653,54.53,79.653z"/></svg>