<svg xmlns="http://www.w3.org/2000/svg"  viewBox="0 0 48 48" width="48px" height="48px"><linearGradient id="KSO7WLFLBNFgc821jKHL3a" x1="24" x2="24" y1="6.53" y2="42.25" gradientUnits="userSpaceOnUse"><stop offset=".9" stop-color="#6d7882"/><stop offset=".917" stop-color="#45494d"/></linearGradient><path fill="url(#KSO7WLFLBNFgc821jKHL3a)" d="M43,10h-9.839c-0.608,0-1.182-0.276-1.562-0.751L29.6,6.751C29.221,6.276,28.646,6,28.039,6	h-8.077c-0.608,0-1.182,0.276-1.562,0.751L16.4,9.249C16.021,9.724,15.446,10,14.839,10H5c-1.105,0-2,0.895-2,2v27	c0,1.105,0.895,2,2,2h38c1.105,0,2-0.895,2-2V12C45,10.895,44.105,10,43,10z"/><radialGradient id="KSO7WLFLBNFgc821jKHL3b" cx="24" cy="25.5" r="13.5" gradientUnits="userSpaceOnUse"><stop offset="0"/><stop offset="1" stop-opacity="0"/></radialGradient><circle cx="24" cy="25.5" r="13.5" fill="url(#KSO7WLFLBNFgc821jKHL3b)"/><circle cx="24" cy="25" r="11" fill="#fff"/><radialGradient id="KSO7WLFLBNFgc821jKHL3c" cx="18.5" cy="19.554" r="16.518" gradientUnits="userSpaceOnUse"><stop offset="0" stop-color="#bd8af5"/><stop offset=".137" stop-color="#b88bf5"/><stop offset=".309" stop-color="#a88ff3"/><stop offset=".499" stop-color="#8f96f2"/><stop offset=".702" stop-color="#6b9eef"/><stop offset=".913" stop-color="#3eaaec"/><stop offset="1" stop-color="#29afea"/></radialGradient><circle cx="24" cy="25" r="8" fill="url(#KSO7WLFLBNFgc821jKHL3c)"/><circle cx="39" cy="16" r="2" fill="#eef2f3"/><path fill="#0076d7" d="M14,10H7V9c0-0.552,0.448-1,1-1h5c0.552,0,1,0.448,1,1V10z"/></svg>