<?xml version="1.0" encoding="iso-8859-1"?>
<!-- Generator: Adobe Illustrator 19.0.0, SVG Export Plug-In . SVG Version: 6.00 Build 0)  -->
<svg version="1.1" id="Capa_1" xmlns="http://www.w3.org/2000/svg" xmlns:xlink="http://www.w3.org/1999/xlink" x="0px" y="0px"
	 viewBox="0 0 464 464" style="enable-background:new 0 0 464 464;" xml:space="preserve">
<path style="fill:#FCF05A;" d="M376,464H40V32h224l112,112V464z"/>
<path style="fill:#FDBD40;" d="M424,416H88V0h224l112,112V416z"/>
<path style="fill:#F49E21;" d="M312,112h112L312,0V112z"/>
<g>
	<path style="fill:#E9686A;" d="M152,352h-16c-4.418,0-8-3.582-8-8s3.582-8,8-8h16c4.418,0,8,3.582,8,8S156.418,352,152,352z"/>
	<path style="fill:#E9686A;" d="M376,352H184c-4.418,0-8-3.582-8-8s3.582-8,8-8h192c4.418,0,8,3.582,8,8S380.418,352,376,352z"/>
	<path style="fill:#E9686A;" d="M152,304h-16c-4.418,0-8-3.582-8-8s3.582-8,8-8h16c4.418,0,8,3.582,8,8S156.418,304,152,304z"/>
	<path style="fill:#E9686A;" d="M376,304H184c-4.418,0-8-3.582-8-8s3.582-8,8-8h192c4.418,0,8,3.582,8,8S380.418,304,376,304z"/>
	<path style="fill:#E9686A;" d="M152,256h-16c-4.418,0-8-3.582-8-8s3.582-8,8-8h16c4.418,0,8,3.582,8,8S156.418,256,152,256z"/>
	<path style="fill:#E9686A;" d="M376,256H184c-4.418,0-8-3.582-8-8s3.582-8,8-8h192c4.418,0,8,3.582,8,8S380.418,256,376,256z"/>
	<path style="fill:#E9686A;" d="M152,208h-16c-4.418,0-8-3.582-8-8s3.582-8,8-8h16c4.418,0,8,3.582,8,8S156.418,208,152,208z"/>
	<path style="fill:#E9686A;" d="M376,208H184c-4.418,0-8-3.582-8-8s3.582-8,8-8h192c4.418,0,8,3.582,8,8S380.418,208,376,208z"/>
	<path style="fill:#E9686A;" d="M152,160h-16c-4.418,0-8-3.582-8-8s3.582-8,8-8h16c4.418,0,8,3.582,8,8S156.418,160,152,160z"/>
	<path style="fill:#E9686A;" d="M376,160H184c-4.418,0-8-3.582-8-8s3.582-8,8-8h192c4.418,0,8,3.582,8,8S380.418,160,376,160z"/>
	<path style="fill:#E9686A;" d="M136,72h48v48h-48V72z"/>
</g>
<g>
</g>
<g>
</g>
<g>
</g>
<g>
</g>
<g>
</g>
<g>
</g>
<g>
</g>
<g>
</g>
<g>
</g>
<g>
</g>
<g>
</g>
<g>
</g>
<g>
</g>
<g>
</g>
<g>
</g>
</svg>
