<?xml version="1.0" encoding="UTF-8"?>
<svg xmlns="http://www.w3.org/2000/svg" xmlns:xlink="http://www.w3.org/1999/xlink" viewBox="0 0 50 50" width="50px" height="50px">
<g id="surface45140917">
<path style=" stroke:none;fill-rule:nonzero;fill:rgb(20.392157%,28.627452%,36.862746%);fill-opacity:1;" d="M 45 4 L 5 4 C 4.449219 4 4 4.449219 4 5 L 4 45 C 4 45.550781 4.449219 46 5 46 L 45 46 C 45.550781 46 46 45.550781 46 45 L 46 5 C 46 4.449219 45.550781 4 45 4 Z M 40 13.5 L 38.179688 15.695312 C 38.0625 15.8125 38 15.964844 38 16.125 L 38 32.75 C 38 32.910156 38.0625 33.0625 38.179688 33.179688 L 40 35.546875 L 40 36 L 30 36 L 30 35.546875 L 32.820312 33.179688 C 32.9375 33.0625 33 32.910156 33 32.75 L 33 17.878906 L 24.847656 36 L 23.304688 36 L 15 18.375 L 15 31.484375 C 15 31.703125 15.074219 31.914062 15.214844 32.089844 L 18 35.546875 L 18 36 L 10 36 L 10 35.546875 L 12.78125 32.109375 C 12.921875 31.9375 13 31.722656 13 31.5 L 13 16.386719 C 13 16.246094 12.949219 16.109375 12.859375 16 L 11 13.5 L 11 13 L 18.097656 13 L 25.722656 29.183594 L 33.003906 13 L 40 13 Z M 40 13.5 "/>
</g>
</svg>
