<svg xmlns="http://www.w3.org/2000/svg" viewBox="0 0 100 100" width="100px" height="100px"><path fill="#fefdef" d="M71,90H29c-5.523,0-10-4.477-10-10V20c0-5.523,4.477-10,10-10h42c5.523,0,10,4.477,10,10v60 C81,85.523,76.523,90,71,90z"/><path fill="#78a2d2" d="M50.484,47c-0.17-5.809-3.263-10.644-7.428-12.072h-5.112C33.78,36.356,30.686,41.191,30.516,47 H50.484z"/><path fill="#ead6c7" d="M40.5 23.5A6 6 0 1 0 40.5 35.5A6 6 0 1 0 40.5 23.5Z"/><path fill="#1f212b" d="M71,91H29c-6.065,0-11-4.935-11-11V20c0-6.065,4.935-11,11-11h42c6.065,0,11,4.935,11,11v60 C82,86.065,77.065,91,71,91z M29,11c-4.962,0-9,4.038-9,9v60c0,4.962,4.038,9,9,9h42c4.962,0,9-4.038,9-9V20c0-4.962-4.038-9-9-9H29 z"/><path fill="#1f212b" d="M67.5 84h-35c-4.136 0-7.5-3.364-7.5-7.5v-53c0-4.136 3.364-7.5 7.5-7.5.276 0 .5.224.5.5S32.776 17 32.5 17c-3.584 0-6.5 2.916-6.5 6.5v53c0 3.584 2.916 6.5 6.5 6.5h35c3.584 0 6.5-2.916 6.5-6.5v-17c0-.276.224-.5.5-.5s.5.224.5.5v17C75 80.636 71.636 84 67.5 84zM74.5 58c-.276 0-.5-.224-.5-.5v-6c0-.276.224-.5.5-.5s.5.224.5.5v6C75 57.776 74.776 58 74.5 58zM74.5 50c-.276 0-.5-.224-.5-.5v-3c0-.276.224-.5.5-.5s.5.224.5.5v3C75 49.776 74.776 50 74.5 50z"/><path fill="#1f212b" d="M69.5 40h-15c-.276 0-.5-.224-.5-.5s.224-.5.5-.5h15c.276 0 .5.224.5.5S69.776 40 69.5 40zM69.5 33h-15c-.276 0-.5-.224-.5-.5s.224-.5.5-.5h15c.276 0 .5.224.5.5S69.776 33 69.5 33zM69.5 26h-15c-.276 0-.5-.224-.5-.5s.224-.5.5-.5h15c.276 0 .5.224.5.5S69.776 26 69.5 26zM69.5 47h-15c-.276 0-.5-.224-.5-.5s.224-.5.5-.5h15c.276 0 .5.224.5.5S69.776 47 69.5 47zM69.5 54h-39c-.276 0-.5-.224-.5-.5s.224-.5.5-.5h39c.276 0 .5.224.5.5S69.776 54 69.5 54zM43.5 61h-13c-.276 0-.5-.224-.5-.5s.224-.5.5-.5h13c.276 0 .5.224.5.5S43.776 61 43.5 61zM69.5 61h-23c-.276 0-.5-.224-.5-.5s.224-.5.5-.5h23c.276 0 .5.224.5.5S69.776 61 69.5 61zM46.5 68h-16c-.276 0-.5-.224-.5-.5s.224-.5.5-.5h16c.276 0 .5.224.5.5S46.776 68 46.5 68zM59.5 68h-10c-.276 0-.5-.224-.5-.5s.224-.5.5-.5h10c.276 0 .5.224.5.5S59.776 68 59.5 68zM69.5 68h-7c-.276 0-.5-.224-.5-.5s.224-.5.5-.5h7c.276 0 .5.224.5.5S69.776 68 69.5 68zM53.5 75h-23c-.276 0-.5-.224-.5-.5s.224-.5.5-.5h23c.276 0 .5.224.5.5S53.776 75 53.5 75zM69.5 75h-13c-.276 0-.5-.224-.5-.5s.224-.5.5-.5h13c.276 0 .5.224.5.5S69.776 75 69.5 75zM30.5 48c-.276 0-.5-.224-.5-.5 0-6.109 3.2-11.474 7.782-13.045.261-.089.545.05.635.311.089.261-.05.545-.311.635C33.922 36.836 31 41.811 31 47.5 31 47.776 30.776 48 30.5 48zM50.5 48c-.276 0-.5-.224-.5-.5 0-5.689-2.922-10.664-7.106-12.099-.261-.09-.4-.374-.311-.635.089-.262.374-.4.635-.311C47.8 36.026 51 41.391 51 47.5 51 47.776 50.776 48 50.5 48z"/><path fill="#1f212b" d="M40.5,36c-3.584,0-6.5-2.916-6.5-6.5s2.916-6.5,6.5-6.5s6.5,2.916,6.5,6.5S44.084,36,40.5,36z M40.5,24c-3.033,0-5.5,2.467-5.5,5.5s2.467,5.5,5.5,5.5s5.5-2.467,5.5-5.5S43.533,24,40.5,24z"/></svg>