<svg xmlns="http://www.w3.org/2000/svg" viewBox="0 0 48 48" width="144px" height="144px"><path fill="#90caf9" d="M4,33c0-7,0-23,0-23h40v30h-8H11C11,40,4,40,4,33z"/><path fill="#42a5f5" d="M9,33h6V10H9H4c0,0,0,16,0,23c0,1.498,0.332,2.66,0.836,3.586C5.842,33.015,9,33,9,33z"/><path fill="#bbdefb" d="M11,26h2V4h-2c0,0-7,0-7,7c0,6.303,0,14.97,0,22C4,26,11,26,11,26z"/><path fill="#1976d2" d="M18 31H39V33H18zM19.707 28.707L18.293 27.293 25.5 20.086 29.5 24.086 34.793 18.793 36.207 20.207 29.5 26.914 25.5 22.914z"/><path fill="#1976d2" d="M32 17L38 23 38 17z"/></svg>