<?xml version="1.0" encoding="UTF-8"?>
<svg xmlns="http://www.w3.org/2000/svg" xmlns:xlink="http://www.w3.org/1999/xlink" width="200pt" height="200pt" viewBox="0 0 200 200" version="1.1">
<g id="surface521238">
<path style=" stroke:none;fill-rule:nonzero;fill:rgb(63.921569%,63.921569%,80.392157%);fill-opacity:1;" d="M 166.71875 113.980469 C 159.941406 111.378906 156.558594 106.980469 156.421875 100.480469 C 156.28125 93.679688 159.640625 89.019531 166.71875 86.28125 C 167.558594 85.980469 168.078125 85.121094 167.960938 84.238281 C 167.5 79.441406 162.140625 66.5 159.28125 63.261719 C 158.699219 62.601562 157.738281 62.398438 156.941406 62.78125 C 150.238281 65.921875 144.640625 65.140625 139.859375 60.398438 C 135.039062 55.640625 134.238281 49.960938 137.421875 43.058594 C 137.820312 42.140625 137.519531 41.039062 136.660156 40.519531 C 130.28125 36.578125 123.359375 33.71875 116.121094 32.058594 C 115.140625 31.820312 114.140625 32.359375 113.800781 33.339844 C 111.539062 39.898438 107.28125 43.460938 101.160156 43.921875 C 93.761719 44.460938 88.800781 41.019531 85.980469 33.359375 C 85.601562 32.398438 84.621094 31.878906 83.621094 32.140625 C 76.28125 33.921875 69.398438 36.800781 63.179688 40.699219 C 62.320312 41.238281 62.019531 42.339844 62.460938 43.238281 C 65.660156 50.019531 64.921875 55.679688 60.199219 60.480469 C 55.441406 65.339844 49.78125 66.160156 42.898438 63 C 41.980469 62.558594 40.898438 62.878906 40.359375 63.761719 C 36.5 70.140625 33.699219 77.058594 32.058594 84.300781 C 31.820312 85.28125 32.339844 86.261719 33.300781 86.621094 C 40.179688 89.121094 43.601562 93.539062 43.761719 100.078125 C 43.898438 106.921875 40.539062 111.558594 33.480469 114.300781 C 32.539062 114.660156 32.039062 115.660156 32.261719 116.640625 C 34 123.800781 36.898438 130.640625 40.859375 136.960938 C 41.378906 137.820312 42.421875 138.140625 43.320312 137.738281 C 50 134.761719 55.519531 135.558594 60.199219 140.101562 C 65 144.78125 65.898438 150.359375 62.960938 157.140625 C 62.578125 158.039062 62.898438 159.101562 63.738281 159.640625 C 70.101562 163.5 76.980469 166.320312 84.179688 167.960938 C 84.300781 168 84.421875 168 84.558594 168 C 85.339844 168 86.121094 167.480469 86.460938 166.78125 C 86.578125 166.558594 86.660156 166.421875 86.699219 166.28125 C 88.960938 160.339844 94.019531 156.640625 99.839844 156.558594 C 99.898438 156.539062 99.980469 156.539062 100.039062 156.539062 C 106.199219 156.539062 111.261719 160.058594 113.621094 165.941406 C 114.078125 167.039062 115.078125 168.238281 117.21875 167.699219 C 123.761719 166.039062 130 163.441406 135.800781 159.980469 C 136.039062 159.820312 136.28125 159.660156 136.5 159.539062 L 136.71875 159.378906 C 137.539062 158.859375 137.820312 157.800781 137.460938 156.921875 C 134.71875 150.738281 135.238281 145.519531 139.140625 141.019531 C 143.859375 135.480469 149.699219 134.339844 157 137.460938 C 157.898438 137.820312 158.960938 137.5 159.480469 136.660156 C 163.398438 130.320312 166.261719 123.480469 167.941406 116.300781 C 168.179688 115.339844 167.660156 114.339844 166.71875 113.980469 Z M 100 146 C 74.601562 146 54 125.398438 54 100 C 54 74.601562 74.601562 54 100 54 C 125.398438 54 146 74.601562 146 100 C 146 125.398438 125.398438 146 100 146 Z M 100 146 "/>
<path style=" stroke:none;fill-rule:nonzero;fill:rgb(39.215686%,45.490196%,65.098039%);fill-opacity:1;" d="M 100 134 C 91.035156 134 82.355469 130.382812 75.996094 124.035156 L 92.9375 114.34375 C 97.351562 116.515625 102.664062 116.511719 107.0625 114.34375 L 124.011719 124.03125 C 117.648438 130.378906 108.96875 134 100 134 Z M 115.9375 101.328125 C 115.976562 100.875 116 100.433594 116 100 C 116 94.269531 112.953125 89.023438 108 86.15625 L 108 66.992188 C 112.433594 68.074219 116.683594 70.085938 120.359375 72.847656 L 120.71875 73.113281 C 120.953125 73.289062 121.183594 73.464844 121.414062 73.652344 C 121.554688 73.769531 121.691406 73.886719 121.828125 74.011719 L 122.109375 74.253906 C 126.652344 78.191406 130.109375 83.269531 132.09375 88.9375 C 133.359375 92.59375 134 96.316406 134 100 C 134 103.609375 133.425781 107.167969 132.292969 110.597656 Z M 84.058594 101.316406 L 67.695312 110.558594 C 66.988281 108.398438 66.5 106.171875 66.242188 103.925781 L 66.144531 102.910156 C 66.0625 101.949219 66 100.980469 66 100 C 66 96.316406 66.640625 92.597656 67.90625 88.941406 C 69.894531 83.269531 73.347656 78.191406 77.890625 74.25 L 78.175781 74.003906 C 78.308594 73.882812 78.445312 73.765625 78.59375 73.644531 C 78.816406 73.460938 79.050781 73.289062 79.289062 73.109375 L 79.636719 72.847656 C 83.316406 70.085938 87.566406 68.070312 92.003906 66.988281 L 92.003906 86.15625 C 87.050781 89.019531 84.003906 94.269531 84.003906 99.996094 C 84 100.433594 84.019531 100.871094 84.058594 101.316406 Z M 100 54 C 74.601562 54 54 74.601562 54 100 C 54 125.398438 74.601562 146 100 146 C 125.398438 146 146 125.398438 146 100 C 146 74.601562 125.398438 54 100 54 Z M 100 54 "/>
<path style=" stroke:none;fill-rule:nonzero;fill:rgb(12.156863%,12.941176%,16.862745%);fill-opacity:1;" d="M 167.4375 112.121094 C 161.398438 109.808594 158.535156 106.097656 158.414062 100.445312 C 158.292969 94.492188 161.160156 90.589844 167.433594 88.152344 C 169.125 87.507812 170.160156 85.804688 169.960938 84.039062 C 169.449219 78.867188 163.867188 65.4375 160.777344 61.9375 C 159.613281 60.613281 157.691406 60.210938 156.101562 60.96875 C 150.152344 63.75 145.4375 63.121094 141.261719 58.992188 C 137.054688 54.828125 136.40625 50.03125 139.230469 43.878906 C 140.070312 42.03125 139.410156 39.851562 137.707031 38.824219 C 131.089844 34.75 123.980469 31.816406 116.59375 30.109375 C 114.585938 29.632812 112.585938 30.742188 111.910156 32.695312 C 109.902344 38.515625 106.34375 41.535156 101.027344 41.933594 C 94.542969 42.386719 90.355469 39.460938 87.835938 32.664062 C 87.117188 30.746094 85.089844 29.691406 83.144531 30.191406 C 75.601562 32.03125 68.527344 34.996094 62.121094 39.011719 C 60.40625 40.09375 59.773438 42.285156 60.644531 44.109375 C 63.503906 50.132812 62.910156 54.882812 58.777344 59.074219 C 54.621094 63.324219 49.84375 63.992188 43.757812 61.195312 C 41.902344 60.300781 39.703125 60.976562 38.664062 62.734375 C 34.683594 69.277344 31.804688 76.382812 30.113281 83.824219 C 29.628906 85.800781 30.714844 87.808594 32.613281 88.480469 C 38.707031 90.722656 41.609375 94.425781 41.746094 100.136719 C 41.886719 106.097656 39.03125 110.011719 32.769531 112.441406 C 30.898438 113.152344 29.851562 115.160156 30.324219 117.101562 C 32.097656 124.441406 35.066406 131.476562 39.152344 138.019531 C 40.222656 139.726562 42.320312 140.371094 44.148438 139.558594 C 50.050781 136.921875 54.710938 137.542969 58.8125 141.53125 C 63.003906 145.625 63.742188 150.332031 61.140625 156.332031 C 60.34375 158.136719 61.007812 160.289062 62.707031 161.335938 C 69.292969 165.339844 76.367188 168.222656 83.550781 169.863281 C 83.976562 170 84.339844 170 84.554688 170 C 86.105469 170 87.597656 169.042969 88.179688 167.792969 C 88.398438 167.429688 88.535156 167.128906 88.570312 166.980469 C 90.535156 161.84375 94.863281 158.617188 99.867188 158.5625 L 100.222656 158.546875 C 105.441406 158.613281 109.75 161.640625 111.78125 166.703125 C 112.828125 169.21875 115.050781 170.3125 117.707031 169.621094 C 124.367188 167.941406 130.800781 165.28125 136.917969 161.644531 L 137.789062 161.054688 C 139.425781 160.015625 140.058594 157.941406 139.28125 156.09375 C 136.851562 150.609375 137.28125 146.230469 140.640625 142.3125 C 144.773438 137.476562 149.722656 136.515625 156.230469 139.292969 C 158.027344 140.054688 160.144531 139.371094 161.175781 137.710938 C 165.203125 131.207031 168.136719 124.160156 169.894531 116.757812 L 169.898438 116.738281 C 170.339844 114.8125 169.28125 112.828125 167.4375 112.121094 Z M 157.792969 135.613281 C 149.679688 132.152344 142.886719 133.527344 137.601562 139.710938 C 133.242188 144.792969 132.578125 150.847656 135.542969 157.75 L 134.78125 158.269531 C 129.089844 161.644531 123.015625 164.160156 116.714844 165.746094 C 115.988281 165.941406 115.746094 165.820312 115.480469 165.1875 C 112.804688 158.527344 107.035156 154.546875 100.042969 154.546875 L 99.523438 154.566406 L 99.503906 154.574219 C 92.957031 154.773438 87.355469 158.957031 84.832031 165.558594 L 84.53125 165.914062 L 84.496094 165.984375 C 77.601562 164.390625 70.96875 161.679688 64.804688 157.941406 C 68.066406 150.414062 66.992188 143.933594 61.605469 138.671875 C 58.386719 135.542969 54.742188 133.972656 50.722656 133.972656 C 48.148438 133.972656 45.421875 134.613281 42.546875 135.898438 C 38.691406 129.726562 35.886719 123.089844 34.210938 116.175781 C 42.046875 113.132812 45.929688 107.707031 45.75 100.042969 C 45.570312 92.683594 41.617188 87.53125 34.007812 84.746094 C 35.609375 77.699219 38.328125 70.992188 42.058594 64.820312 C 49.703125 68.34375 56.289062 67.351562 61.632812 61.882812 C 66.953125 56.488281 67.835938 49.933594 64.253906 42.40625 C 70.292969 38.617188 76.964844 35.820312 84.089844 34.066406 C 87.226562 42.539062 93.027344 46.523438 101.320312 45.929688 C 108.207031 45.414062 113.179688 41.292969 115.675781 34.011719 C 122.65625 35.625 129.363281 38.390625 135.59375 42.222656 C 132.074219 49.886719 133.035156 56.484375 138.445312 61.84375 C 143.824219 67.160156 150.335938 68.089844 157.773438 64.589844 C 160.332031 67.488281 165.546875 80.105469 165.992188 84.425781 C 158.152344 87.46875 154.257812 92.886719 154.410156 100.535156 C 154.566406 107.8125 158.464844 112.972656 165.996094 115.863281 C 164.339844 122.828125 161.570312 129.472656 157.792969 135.613281 Z M 157.792969 135.613281 "/>
<path style=" stroke:none;fill-rule:nonzero;fill:rgb(12.156863%,12.941176%,16.862745%);fill-opacity:1;" d="M 100 148 C 73.535156 148 52 126.464844 52 100 C 52 73.535156 73.535156 52 100 52 C 104.507812 52 108.972656 52.628906 113.277344 53.867188 C 113.808594 54.019531 114.113281 54.574219 113.960938 55.105469 C 113.808594 55.636719 113.257812 55.945312 112.722656 55.789062 C 108.601562 54.601562 104.320312 54 100 54 C 74.632812 54 54 74.632812 54 100 C 54 125.367188 74.632812 146 100 146 C 125.367188 146 146 125.367188 146 100 C 146 87.621094 141.132812 75.996094 132.296875 67.277344 C 131.902344 66.890625 131.898438 66.257812 132.289062 65.863281 C 132.675781 65.472656 133.308594 65.464844 133.703125 65.855469 C 142.921875 74.953125 148 87.078125 148 100 C 148 126.464844 126.464844 148 100 148 Z M 129 64.039062 C 128.785156 64.039062 128.5625 63.96875 128.378906 63.824219 C 127.742188 63.320312 127.089844 62.835938 126.421875 62.367188 C 125.96875 62.050781 125.863281 61.425781 126.179688 60.972656 C 126.496094 60.523438 127.121094 60.414062 127.574219 60.730469 C 128.269531 61.222656 128.949219 61.726562 129.617188 62.253906 C 130.050781 62.597656 130.125 63.222656 129.78125 63.65625 C 129.589844 63.90625 129.292969 64.039062 129 64.039062 Z M 129 64.039062 "/>
<path style=" stroke:none;fill-rule:nonzero;fill:rgb(12.156863%,12.941176%,16.862745%);fill-opacity:1;" d="M 132.84375 113.054688 C 132.675781 113.054688 132.503906 113.015625 132.351562 112.925781 L 114.378906 102.742188 C 114.023438 102.542969 113.828125 102.148438 113.878906 101.742188 C 113.957031 101.136719 114 100.5625 114 100 C 114 94.886719 111.066406 90.035156 106.53125 87.632812 C 106.207031 87.457031 106 87.121094 106 86.746094 L 106 83.136719 C 106 82.585938 106.449219 82.136719 107 82.136719 C 107.550781 82.136719 108 82.585938 108 83.136719 L 108 86.15625 C 112.953125 89.023438 116 94.269531 116 100 C 116 100.433594 115.976562 100.875 115.9375 101.328125 L 132.296875 110.597656 C 133.425781 107.167969 134 103.609375 134 100 C 134 96.316406 133.359375 92.59375 132.089844 88.9375 C 130.105469 83.269531 126.652344 78.1875 122.109375 74.25 L 121.828125 74.007812 C 121.691406 73.882812 121.554688 73.765625 121.410156 73.648438 C 121.183594 73.460938 120.953125 73.289062 120.714844 73.113281 L 120.359375 72.84375 C 116.683594 70.082031 112.433594 68.070312 107.996094 66.988281 L 107.996094 77 C 107.996094 77.550781 107.550781 78 106.996094 78 C 106.445312 78 106 77.550781 106 77 L 106 65.742188 C 106 65.441406 106.132812 65.15625 106.367188 64.964844 C 106.601562 64.777344 106.910156 64.703125 107.203125 64.761719 C 112.355469 65.816406 117.320312 68.058594 121.5625 71.246094 L 121.921875 71.511719 C 122.171875 71.703125 122.429688 71.894531 122.675781 72.097656 C 122.835938 72.222656 122.992188 72.363281 123.148438 72.503906 L 123.421875 72.738281 C 128.226562 76.902344 131.878906 82.277344 133.980469 88.277344 C 135.320312 92.148438 136 96.09375 136 100 C 136 104.238281 135.253906 108.410156 133.78125 112.402344 C 133.679688 112.679688 133.464844 112.894531 133.1875 112.996094 C 133.074219 113.039062 132.957031 113.054688 132.84375 113.054688 Z M 67.144531 113.019531 C 67.027344 113.019531 66.910156 113 66.796875 112.957031 C 66.523438 112.859375 66.304688 112.640625 66.203125 112.363281 C 65.234375 109.714844 64.578125 106.945312 64.253906 104.132812 L 64.152344 103.09375 C 64.085938 102.246094 64 101.136719 64 100 C 64 96.09375 64.679688 92.152344 66.019531 88.285156 C 68.121094 82.28125 71.773438 76.90625 76.578125 72.742188 L 76.855469 72.503906 C 77.011719 72.367188 77.167969 72.226562 77.328125 72.097656 C 77.574219 71.898438 77.828125 71.707031 78.089844 71.515625 L 78.433594 71.253906 C 82.679688 68.0625 87.644531 65.820312 92.800781 64.765625 C 93.09375 64.703125 93.398438 64.78125 93.632812 64.96875 C 93.867188 65.15625 94 65.441406 94 65.742188 L 94 86.746094 C 94 87.121094 93.792969 87.457031 93.46875 87.632812 C 88.933594 90.035156 86 94.886719 86 100 C 86 100.558594 86.039062 101.128906 86.121094 101.730469 C 86.171875 102.136719 85.976562 102.53125 85.621094 102.734375 L 67.636719 112.890625 C 67.484375 112.976562 67.3125 113.019531 67.144531 113.019531 Z M 92 66.992188 C 87.566406 68.074219 83.3125 70.085938 79.632812 72.851562 L 79.285156 73.113281 C 79.046875 73.289062 78.816406 73.464844 78.589844 73.648438 C 78.445312 73.769531 78.308594 73.886719 78.171875 74.007812 L 77.890625 74.253906 C 73.34375 78.191406 69.890625 83.269531 67.902344 88.945312 C 66.640625 92.597656 66 96.316406 66 100 C 66 100.980469 66.0625 101.949219 66.148438 102.910156 L 66.242188 103.925781 C 66.503906 106.171875 66.988281 108.398438 67.699219 110.558594 L 84.0625 101.316406 C 84.019531 100.871094 84 100.433594 84 100 C 84 94.269531 87.046875 89.023438 92 86.15625 Z M 85.027344 132.617188 C 84.882812 132.617188 84.734375 132.585938 84.597656 132.519531 C 83.886719 132.179688 83.183594 131.816406 82.492188 131.433594 C 82.011719 131.164062 81.839844 130.554688 82.109375 130.070312 C 82.378906 129.589844 82.988281 129.417969 83.46875 129.6875 C 84.121094 130.054688 84.785156 130.394531 85.457031 130.714844 C 85.957031 130.953125 86.167969 131.550781 85.929688 132.046875 C 85.761719 132.40625 85.398438 132.617188 85.027344 132.617188 Z M 85.027344 132.617188 "/>
<path style=" stroke:none;fill-rule:nonzero;fill:rgb(12.156863%,12.941176%,16.862745%);fill-opacity:1;" d="M 100 136 C 96.878906 136 93.777344 135.59375 90.769531 134.789062 C 90.234375 134.648438 89.914062 134.097656 90.058594 133.566406 C 90.203125 133.035156 90.746094 132.71875 91.285156 132.859375 C 94.125 133.617188 97.054688 134 100 134 C 108.96875 134 117.648438 130.378906 124.011719 124.03125 L 107.0625 114.34375 C 102.664062 116.511719 97.351562 116.515625 92.9375 114.34375 L 75.996094 124.035156 C 77.117188 125.152344 78.3125 126.195312 79.570312 127.144531 C 80.011719 127.476562 80.101562 128.101562 79.769531 128.542969 C 79.433594 128.988281 78.804688 129.070312 78.367188 128.742188 C 76.683594 127.46875 75.097656 126.039062 73.652344 124.488281 C 73.445312 124.265625 73.351562 123.957031 73.398438 123.65625 C 73.441406 123.355469 73.625 123.089844 73.890625 122.941406 L 92.417969 112.34375 C 92.710938 112.171875 93.085938 112.164062 93.386719 112.328125 C 97.46875 114.523438 102.539062 114.523438 106.617188 112.324219 C 106.921875 112.160156 107.285156 112.167969 107.585938 112.339844 L 126.117188 122.933594 C 126.382812 123.085938 126.566406 123.347656 126.609375 123.648438 C 126.65625 123.949219 126.5625 124.257812 126.355469 124.480469 C 119.546875 131.800781 109.945312 136 100 136 Z M 100 136 "/>
</g>
</svg>
